PathFileType	4	(X/Y/Z)	D:/ViconDB/Teaching_2017/Workshops/171025_A1_Demo01/Demo/171025_Guy_ROM_body_01_unlab.trc
DataRate	CameraRate	NumFrames	NumMarkers	Units	OrigDataRate	OrigDataStartFrame	OrigNumFrames
120.000000	120.000000	4	1	mm	120.000000	61	120
Frame#	Time	Unlabeled_Markers			
		X0	Y0	Z0	
61	0.508333				163.631989	83.481133	96.472466	-34.743832	1843.372070	-16.028101	-178.297653	79.207298	83.003204	129.291641	68.645500	-191.207260	126.971970	85.624870	51.864243	-204.279556	76.929596	27.227385	237.787064	1221.405151	-65.866600	-124.264755	76.135727	43.023689	-116.192978	76.104668	-194.554504	143.336121	1501.527100	-110.555817	179.627853	124.614113	-134.734421	208.128586	79.294533	42.622055	-6.685507	1553.637207	-99.034050	-178.856064	127.596733	-146.392334	-305.252319	866.029846	46.660355	196.499252	332.786835	-92.736580	263.402802	926.995605	39.147804	263.374084	1168.531494	-6.337913	-168.785782	1501.699829	-107.835068	66.171974	1734.385376	-41.509686	-238.999359	1207.857910	-104.693184	-198.428940	413.248627	-92.499596	238.449051	1356.285400	-32.141373	-89.902992	1716.972046	-73.653023	-301.154541	1048.434814	-10.091148	118.640579	1171.986572	-95.513191	-284.411041	919.816895	-9.240774	-292.480469	1167.546387	-50.213692	-185.054169	565.960815	-19.622040	-100.720329	1789.256104	55.993324	183.894592	662.601135	-14.822225	275.900360	872.709595	96.952820	257.183990	888.958191	123.377846	176.089676	549.361206	-12.511893	-0.383238	1375.203735	-128.715225	-116.437721	1157.853882	-111.609421	-257.420746	1361.984375	-49.282181	-9.796036	1484.089233	76.395889	-294.280670	872.318054	86.188103	-160.239365	650.537842	43.606079	-155.680603	1508.919067	10.172272	260.558746	1054.921021	54.984222	-201.255646	1011.929443	-60.014660	26.433054	1794.458252	75.132088	185.422333	981.711914	-18.866154	-135.450684	753.090271	67.579994	-140.363647	1093.219482	91.107880	114.879395	629.892029	51.561672	127.176941	1506.480103	28.993547	-3.058270	1347.636841	118.975105	-258.409454	945.155090	64.932297	209.432236	933.991394	103.847343	119.296379	1090.015991	90.133499																																																																																																																																																																																																																																																																																																																																																																																																																																																																																																																																																																																																															
62	0.516667				163.650375	83.492577	96.464249	-34.788651	1843.364380	-15.847361	-178.281784	79.215134	82.991890	129.302292	68.658272	-191.221405	126.977394	85.630341	51.838223	-204.276505	76.959015	27.248993	237.766922	1221.400513	-65.914932	-124.268745	76.132950	43.002514	-116.215858	76.112923	-194.559357	143.294052	1501.537964	-110.529015	179.604599	124.578209	-134.767654	208.127380	79.306465	42.571465	-6.697328	1553.664795	-98.971245	-178.818649	127.587173	-146.393692	-305.077393	866.021973	46.600819	196.458649	332.762024	-92.801216	263.425720	926.952759	38.985588	263.364990	1168.523193	-6.425952	-168.910995	1501.505737	-107.757820	66.104286	1734.386841	-41.371639	-238.926361	1207.832764	-104.712143	-198.398758	413.261444	-92.554214	238.429245	1356.276733	-32.173542	-89.886368	1716.987305	-73.529434	-301.041748	1048.407349	-10.104918	118.618896	1171.988037	-95.529411	-284.247467	919.766235	-9.283072	-292.423004	1167.527710	-50.240082	-185.058975	565.985535	-19.670988	-100.753624	1789.251099	56.176891	183.870377	662.579834	-14.914427	275.939331	872.683960	96.822449	257.258362	888.918213	123.249092	176.053604	549.317383	-12.610851	-0.412191	1375.212158	-128.665970	-116.444519	1157.849121	-111.594376	-257.374725	1361.998413	-49.201973	-9.778336	1484.107544	76.446159	-294.313629	872.423035	86.267723	-160.216782	650.566956	43.592678	-155.689621	1508.926147	10.249717	260.530548	1054.878540	54.877724	-201.258911	1011.898621	-60.046448	26.397701	1794.424438	75.248512	185.363388	981.668823	-18.925056	-135.447327	753.124817	67.572823	-140.368851	1093.263794	91.096802	114.866745	629.924438	51.475067	127.160179	1506.479004	29.003521	-3.032822	1347.630005	118.999619	-258.211792	945.146912	64.897362	209.568146	934.026306	103.807304	119.284615	1090.008423	90.133972																																																																																																																																																																																																																																																																																																																																																																																																																																																																																																																																																																																																															
63	0.525000				163.627579	83.477997	96.439194	-34.844707	1843.356812	-15.706265	-178.308289	79.175957	82.998039	129.301025	68.602501	-191.203568	126.932503	85.611870	51.816235	-204.330872	76.916084	27.213202	237.746277	1221.421143	-65.978889	-124.279892	76.113594	42.991119	-116.252319	76.064491	-194.574112	143.259186	1501.550781	-110.531998	179.548828	124.535049	-134.794174	208.104996	79.325195	42.608574	-6.752510	1553.668457	-98.945236	-178.875458	127.558899	-146.371262	-304.959564	865.944519	46.505600	196.420242	332.791473	-92.842720	263.446442	926.963806	38.868401	263.362976	1168.547852	-6.489697	-168.935349	1501.464233	-107.717979	66.116554	1734.433472	-41.338638	-238.892715	1207.812866	-104.710808	-198.434570	413.169891	-92.547050	238.404587	1356.307983	-32.206566	-89.976547	1716.980347	-73.423584	-300.982758	1048.335815	-10.154986	118.567223	1171.984741	-95.556580	-284.104340	919.687317	-9.352523	-292.310730	1167.431152	-50.218304	-185.108429	565.962524	-19.731445	-100.829910	1789.192505	56.290070	183.845947	662.625061	-14.998247	275.994476	872.708496	96.702820	257.265594	888.908142	123.141464	176.024750	549.357361	-12.666677	-0.469344	1375.208130	-128.697800	-116.532486	1157.867432	-111.618858	-257.400208	1361.946289	-49.187778	-9.840934	1484.096069	76.442558	-294.015350	872.230835	86.111755	-160.242569	650.559937	43.561352	-155.774689	1508.863770	10.217110	260.591095	1054.907837	54.793453	-201.312531	1011.858459	-60.031853	26.355652	1794.414307	75.376465	185.361328	981.710388	-19.002060	-135.523972	753.125488	67.508820	-140.408859	1093.219116	91.036072	114.778290	629.920410	51.360897	127.125198	1506.491577	29.026718	-3.092157	1347.609985	118.979187	-258.101868	945.071899	64.815453	209.628860	934.042725	103.685730	119.211388	1090.027710	90.089363																																																																																																																																																																																																																																																																																																																																																																																																																																																																																																																																																																																																															
64	0.533333				163.576981	83.447144	96.399635	-34.882332	1843.329224	-15.582708	-178.348953	79.124687	82.952263	129.222641	68.559021	-191.230240	126.874008	85.579338	51.791004	-204.356842	76.861481	27.184162	237.719986	1221.452881	-66.071785	-124.345131	76.039429	42.956654	-116.824982	75.870636	-194.262939	143.207733	1501.556030	-110.539078	179.511856	124.556259	-134.834976	208.078323	79.333305	42.588791	-6.816178	1553.629150	-98.915726	-178.906342	127.477486	-146.405838	-304.826080	865.841064	46.372646	196.373306	332.821198	-92.891747	263.492706	926.989136	38.735214	263.386780	1168.585693	-6.553015	-168.982834	1501.438843	-107.685555	66.099510	1734.486328	-41.263248	-238.863693	1207.755859	-104.725433	-198.465271	413.111694	-92.603058	238.394897	1356.363159	-32.226875	-90.028328	1716.970459	-73.315567	-300.924225	1048.224609	-10.240804	118.524071	1171.948242	-95.586525	-283.976288	919.573547	-9.424279	-292.264679	1167.331543	-50.270275	-185.166824	565.901611	-19.793507	-100.870918	1789.113770	56.343811	183.831573	662.693542	-15.062465	276.073517	872.779785	96.581352	257.317627	888.920288	123.027451	175.987503	549.419189	-12.714643	-0.524256	1375.185059	-128.679352	-116.551926	1157.875000	-111.770454	-257.425964	1361.878296	-49.242496	-9.871668	1484.086426	76.447350	-293.860596	872.070679	86.004288	-160.318115	650.495911	43.463890	-155.864639	1508.799683	10.150668	260.631958	1054.945923	54.702671	-201.388840	1011.790955	-60.084858	26.359850	1794.430054	75.519531	185.321899	981.736938	-19.039785	-135.568344	753.161743	67.469948	-140.485214	1093.190186	90.953766	114.726204	629.957458	51.289398	127.132904	1506.543579	29.049318	-3.153864	1347.583252	118.938484	-257.940399	945.026001	64.712700	209.689514	934.063354	103.528633	119.190460	1090.040283	90.046471																																																																																																																																																																																																																																																																																																																																																																																																																																																																																																																																																																																																															
